<svg width="50" height="50" viewBox="0 0 50 50" fill="none" xmlns="http://www.w3.org/2000/svg">
<g id="ph:crown">
<path id="Vector" d="M47.625 14.8809C47.2725 14.5735 46.8366 14.3779 46.3727 14.3188C45.9088 14.2597 45.4378 14.3397 45.0195 14.5488L35.2129 19.4316L27.0254 5.83203C26.8149 5.48306 26.5179 5.19439 26.163 4.994C25.8081 4.79362 25.4075 4.68832 25 4.68832C24.5925 4.68832 24.1919 4.79362 23.837 4.994C23.4821 5.19439 23.1851 5.48306 22.9746 5.83203L14.7871 19.4375L4.98437 14.5547C4.56706 14.3474 4.09785 14.2681 3.6356 14.3265C3.17334 14.385 2.73865 14.5786 2.38607 14.8832C2.03349 15.1878 1.77873 15.5898 1.65375 16.0386C1.52877 16.4875 1.53915 16.9633 1.68359 17.4062L8.91015 39.5469C8.98281 39.7693 9.1045 39.9726 9.26623 40.1417C9.42796 40.3108 9.62561 40.4414 9.84459 40.5239C10.0636 40.6064 10.2983 40.6386 10.5314 40.6183C10.7645 40.5979 10.99 40.5255 11.1914 40.4063C11.2402 40.377 16.2344 37.5 25 37.5C33.7656 37.5 38.7598 40.377 38.8047 40.4043C39.0061 40.5247 39.2321 40.5981 39.4657 40.6192C39.6994 40.6402 39.9349 40.6084 40.1546 40.5261C40.3743 40.4437 40.5726 40.3129 40.7349 40.1434C40.8971 39.9739 41.0191 39.77 41.0918 39.5469L48.3184 17.4121C48.4669 16.969 48.4803 16.4917 48.3569 16.041C48.2334 15.5902 47.9786 15.1864 47.625 14.8809ZM38.6719 36.8809C36.3281 35.8867 31.6562 34.375 25 34.375C18.3437 34.375 13.6719 35.8867 11.3281 36.8809L5.21679 18.1641L14.0195 22.5527C14.5523 22.8155 15.1643 22.8692 15.7347 22.7033C16.3052 22.5373 16.7928 22.1638 17.1016 21.6562L25 8.52734L32.8984 21.6523C33.2075 22.1591 33.6948 22.532 34.2646 22.6978C34.8345 22.8637 35.4458 22.8106 35.9785 22.5488L44.7832 18.1641L38.6719 36.8809ZM34.3496 30.6309C34.2858 30.9923 34.0968 31.3198 33.8158 31.5559C33.5347 31.7919 33.1795 31.9215 32.8125 31.9219C32.7208 31.9218 32.6294 31.9139 32.5391 31.8984C27.5482 31.0417 22.4479 31.0417 17.457 31.8984C17.0488 31.9704 16.6288 31.8773 16.2892 31.6396C15.9497 31.4019 15.7185 31.039 15.6465 30.6309C15.5745 30.2227 15.6676 29.8026 15.9053 29.4631C16.143 29.1235 16.5059 28.8923 16.9141 28.8203C22.2642 27.901 27.7319 27.901 33.082 28.8203C33.4894 28.8918 33.8518 29.122 34.0898 29.4603C34.3278 29.7986 34.4219 30.2174 34.3516 30.625L34.3496 30.6309Z" fill="white"/>
</g>
</svg>
